<?xml version="1.0" encoding="UTF-8"?>
<svg id="Layer_1" data-name="Layer 1" xmlns="http://www.w3.org/2000/svg" viewBox="0 0 550 119">
  <defs>
    <style>
      .cls-1 {
        fill: #fff;
      }
    </style>
  </defs>
  <path d="M1,0h549v119H1V0ZM23.96,40v45.5c0,.49,1.61,6.85,1.92,7.08l3.46.33,1.61-1.41v-26c0-5.15,3.87-18.83,6.72-23.28.75-1.18-.07-2.07,1.78-.24l-3.53,41.46c.36,2.95,3.25,4.12,5.93,3.47,1.71-10.54,1.77-21.27,4.96-31.58.5-1.63-.82-2.82,2.12-2.33v30.5c0,.78,3.15,7.86,3.99,9.01,3.37,4.6,8.9,6.33,14.22,4.22,1.42-.56,2.28-2.18,3.46-2.53,4.5-1.32,8.21,1.54,10.86-5.27,5.17,1.6,7.56,7.42,14.46,4.63,4.15-12.31,6.61-25.52,6.92-38.56,17.84-1.13,3.13,13.75,2.96,22.56-.28,14.37,19.22,15.9,21.5.45,3.68,3.63,7.53,7.26,10.29,11.69,2.98,4.77,4.41,15.08,10.54,13.18l1.49-2.19c-2.3-6.99-10.7-33.36-8.73-39.05.85-2.45,16.43-3.45,19.85-4.63,2.19,2.38-6.35,25.66-5.58,30.54.41,2.59,4.53,2.7,6.58,2.46-1.7-6.71,8.23-31.12,5.08-35.35-3.52-4.72-21.59,2.73-27.03,2.35-.02-5.39-1.76-11.17-2.04-16.46s2.13-24.5.12-27.12c-4.09-5.34-5.6,2.93-5.94,6.21-1.44,13.66-1.47,25.77-5.56,39.43-1.07,3.57-3.93,5.02-4.4,6.66-.71,2.49.95,4.79.67,7.51-.64,6.2-9.38,19.03-10.82,6.29-1.25-11.07,13.5-22.79-.77-27.23-2.97-.93-20.63-3.89-22.17-2.28.1,4.06,4.93,3.92,7.86,4.11,1.73,3.7-4.23,34.85-6.36,34.86-9.13-6.2-.23-31.21-8.18-36.03-11.2-6.79-15.38,21.52-15.31,28.59.05,5.51,3.99,10.45-4.48,12.44-4.93-.13-7.9-11.54-8.35-15.59-1.38-12.34,1.77-25.7,1.94-37.95.06-4.53-3.19-6.71-6.8-4.21-1.52,1.05-1.02,6.69-4.22,5.76l-.44-8.05c-8.15-4.14-10.4,7.09-13.28,11.78-.65,1.06.03,1.74-2.25,1.27.07-5.49,1.88-19.33-7.38-13.88-4.93,2.91-14.77,27.44-11.08,31.85,5.12,6.12,5.33-8.66,5.72-10.23.94-3.81,3.41-10.19,5.51-13.45.63-.99-.12-1.78,2.24-1.29h-.06ZM273.51,66v19.5c0,.58,3.34,2.48,4.4,2.54.48,0,1.59-2.39,1.59-2.54v-18.5c4.77-1.31,23,2.8,22.99,8.5-.01,7.02-27.38,19.04-34.43,19.53-5.24.36-15.61-2.49-17.99-2.04-3.34.63.19,3.03,2.25,3.73,5.3,1.77,25.25,3.95,31.62,4.32,6.7.39,29.79,1.02,31.46-7.56,2.03-10.49-10.01-14.99-1.47-22.46l2.26,12.71c1.84,3.06,6.55,7.46,10.25,6.87,6.87-1.08,7.9-10.32,10.45-11.6,1.81-.9,2.39,3.94,3.48,5.5,3.7,5.28,8.81,6.65,15.01,5.02s8.33-8.72,8.72-14.34c.53-7.43-5.2-15.7-1.25-22.18,2.41-.48,1.43,1.94,1.49,3.48.28,7.47.2,15.41,5.46,21.54,4.18,4.88,6.75,2.7,9.29,4.2.54.32.79,2.11,1.67,2.78,2.11,1.61,11.13,5.39,14.29,6.73,10.52,4.44,23.3-10.7,29.69-17.73,2.27-.42,1.37,1,1.48,2.48.23,3.06-.45,4.77,1.13,7.88,3.21,6.31,7.33,5.64,11.28.56,6.48-8.34,9.11-18.46,16.13-26.85,2.56-3.06,6.29-7.51,10.39-8.08,1.13,1.27-3.38,23.89-3,28.48s4.82,12.24,8.88,6.9c2.43-3.19,12.43-26.18,14.58-26.36,2.75,2.1-.25,5.4-.51,8.48-.84,9.99,6.2,17.73,16.39,16.41,12.06-1.57,25.83-18.5,31.34-28.6.84-1.54,6.35-11.97,2.69-12.28-2.09-.18-12.89,17.36-15.51,20.44-4.61,5.45-16.04,16.9-23.5,16.46-3.06-.18-6.18-5.72-6.38-8.55-.41-5.88,7.15-20.09,4.04-23.97-4.41-5.5-10.07,3.47-12.46,6.7-4.54,6.14-8.82,13.79-11.6,20.89-1.88.1-2.04.47-2.02-1.51.06-5.72,4.81-22.84.32-26.53-8.83-7.27-18.93,9.41-23.76,15.04l-5.35-5.7,1.86-5.74-4.52-2.23c-4.5,7.27-7.55,3.21-14.81,3.81-10.99.89-23.17,8.8-28.76,18.18-1.62,2.72-4.92,13.06-6.31,13.69-1.69.76-3.38-4.65-3.45-5.54-.23-3.34,3.04-6.89.83-10.32l-5.81-.08c.04,1.32-1.19,9.89-3.52,8.94-7.75-3.16-1.62-22.98-9.23-26.75-13.32-6.6-7.78,10.8-7.26,16.27s.11,19.05-7.47,19.58c-12.14.85-8.82-23.14-5.62-30.48-.32-1.38-3.92-2.98-5.26-2.56-1.77.55-8.86,31.7-16.06,32.95-9.17-5.58,2.35-34.83.06-38.04-.64-.89-3.99-2.22-5.06-1.02-1.97,2.22-1.07,5.61-1.99,8.08-1.11,2.99-8.47,16.46-11.14,16.91-7.76-5.82-16.62-8.5-26.24-9-.09-1.39-.5-3.55.15-4.72.69-1.23,19.37-13.36,22.72-16.72,13.29-13.32,1.81-19.56-12.47-19.58-2.18,0-11.79,2.18-12.54,1.66-1.42-1-1.3-6.88-5.92-5.58l-2,7.5c-5.84,1.58-34.21,12.66-33.73,19.01.12,1.54,3.52,2.99,5.12,2.55,1.01-6.13,28.72-18.94,30.6-17.06l2.03,25.45-6.07,7.02c.42,3.07,3.36,3.83,6.04,3.53h.04ZM164.62,36.09l-6.9,1.41c2.26,2.18,4.51,5.41,7.98,5.5l-1.07-6.91h0ZM403.55,40.72c1.1,1.11,9.77,5.06,9.68,1.78-3.03-3.48-5.94-6.31-10.96-5.49-.48.44.65,3.09,1.28,3.72h0ZM188.66,72.5c-.61-5.5.44-11.89,0-17.5l-5.83.17-5.65,12.81c-3.69-3.83.47-9.4-1.6-13.88l-5.89-.1c2.04,8.24.08,17.06,1.26,25.23.63,4.4,2.28,9.85,7.65,8.68l3.57-13.91c4.27,8.07,4.99,18.19,16.87,16.93,13.73-1.46,18.64-21.19,20.58-32.42l-2.58.4c-.88,0,.33-3.48-1.9-.89-4.11,4.8-7.82,32.43-19.79,28.81-3.31-1-6.34-11.09-6.69-14.34h0Z"/>
  <path class="cls-1" d="M0,0h1v119H0M273.51,66c-2.68.3-5.62-.46-6.04-3.53l6.07-7.02-2.03-25.45c-1.88-1.88-29.59,10.93-30.6,17.06-1.6.44-5-1.01-5.12-2.55-.48-6.35,27.89-17.43,33.73-19.01l2-7.5c4.63-1.3,4.5,4.57,5.92,5.58.74.52,10.35-1.66,12.54-1.66,14.28.02,25.76,6.25,12.47,19.58-3.35,3.36-22.04,15.49-22.72,16.72-.65,1.17-.24,3.32-.15,4.72,9.62.5,18.48,3.18,26.24,9,2.67-.45,10.04-13.91,11.14-16.91.91-2.47.02-5.86,1.99-8.08,1.06-1.2,4.42.13,5.06,1.02,2.29,3.21-9.24,32.46-.06,38.04,7.2-1.25,14.29-32.4,16.06-32.95,1.34-.42,4.94,1.18,5.26,2.56-3.19,7.34-6.52,31.33,5.62,30.48,7.57-.53,8.01-13.87,7.47-19.58s-6.06-22.86,7.26-16.27c7.61,3.77,1.49,23.59,9.23,26.75,2.33.95,3.56-7.63,3.52-8.94l5.81.08c2.22,3.43-1.06,6.98-.83,10.32.06.9,1.76,6.31,3.45,5.54,1.38-.63,4.68-10.96,6.31-13.69,5.59-9.38,17.78-17.29,28.76-18.18,7.26-.59,10.32,3.46,14.81-3.81l4.52,2.23-1.86,5.74,5.35,5.7c4.83-5.64,14.93-22.31,23.76-15.04,4.48,3.69-.27,20.81-.32,26.53-.02,1.98.14,1.62,2.02,1.51,2.78-7.09,7.06-14.74,11.6-20.89,2.39-3.23,8.06-12.2,12.46-6.7,3.11,3.88-4.45,18.09-4.04,23.97.19,2.83,3.31,8.36,6.38,8.55,7.45.45,18.88-11.01,23.5-16.46,2.61-3.09,13.42-20.62,15.51-20.44,3.66.31-1.85,10.74-2.69,12.28-5.51,10.1-19.28,27.03-31.34,28.6-10.2,1.32-17.23-6.41-16.39-16.41.26-3.08,3.26-6.39.51-8.48-2.15.18-12.16,23.18-14.58,26.36-4.07,5.35-8.51-2.31-8.88-6.9s4.13-27.22,3-28.48c-4.1.57-7.83,5.02-10.39,8.08-7.02,8.38-9.65,18.5-16.13,26.85-3.95,5.09-8.07,5.75-11.28-.56-1.58-3.12-.9-4.82-1.13-7.88-.11-1.48.79-2.9-1.48-2.48-6.39,7.03-19.17,22.17-29.69,17.73-3.17-1.34-12.18-5.12-14.29-6.73-.88-.67-1.13-2.46-1.67-2.78-2.54-1.51-5.11.67-9.29-4.2-5.25-6.13-5.18-14.07-5.46-21.54-.06-1.53.92-3.96-1.49-3.48-3.95,6.47,1.78,14.75,1.25,22.18-.4,5.62-2.6,12.72-8.72,14.34s-11.31.26-15.01-5.02c-1.09-1.56-1.67-6.4-3.48-5.5-2.55,1.27-3.58,10.52-10.45,11.6-3.7.58-8.41-3.82-10.25-6.87l-2.26-12.71c-8.54,7.47,3.5,11.96,1.47,22.46-1.66,8.59-24.75,7.95-31.46,7.56s-26.32-2.55-31.62-4.32c-2.07-.69-5.59-3.09-2.25-3.73,2.37-.45,12.75,2.4,17.99,2.04,7.05-.49,34.42-12.51,34.43-19.53.01-5.7-18.22-9.81-22.99-8.5v18.5c0,.15-1.1,2.54-1.59,2.54-1.06-.05-4.4-1.96-4.4-2.54v-19.5h-.04ZM278.5,52.99l11.89-7.58c2.68-3.03,16.95-13.11,12.09-17.94-3.09-3.07-20.82-1.41-25.54.45l1.57,25.07h-.01ZM430.22,55c-16.27-.49-31.14,9.49-36.81,24.69l2.87,2.86c.6,1.91-5.53,7.26,2.41,6.43,8.45-.88,26.51-22.88,30.56-30.46.65-1.21,1.36-1.9.97-3.52M439.09,60.12l-2.86-.12c-1.06,7.26-6.3,14.56-3.99,22,2.53.57,1.74-.69,2.57-1.88,4.43-6.28,8.99-12.57,4.28-20M279.5,98h19.46c1.93,0,10.63-3.32,11.32-5.71.88-3.02-1.72-10.14-4.34-12.27-6.6,8.36-16.57,11.05-25.18,15.75-1.17.64-1.67-.05-1.28,2.24h.02ZM23.96,40c-2.35-.49-1.6.3-2.24,1.29-2.1,3.26-4.57,9.64-5.51,13.45-.39,1.57-.59,16.35-5.72,10.23-3.69-4.41,6.14-28.94,11.08-31.85,9.26-5.46,7.45,8.39,7.38,13.88,2.28.47,1.6-.21,2.25-1.27,2.88-4.69,5.13-15.92,13.28-11.78l.44,8.05c3.2.93,2.7-4.71,4.22-5.76,3.61-2.5,6.87-.32,6.8,4.21-.17,12.25-3.32,25.61-1.94,37.95.45,4.04,3.42,15.46,8.35,15.59,8.47-1.98,4.54-6.93,4.48-12.44-.07-7.08,4.11-35.38,15.31-28.59,7.95,4.82-.95,29.83,8.18,36.03,2.14,0,8.1-31.16,6.36-34.86-2.92-.19-7.75-.06-7.86-4.11,1.54-1.61,19.19,1.36,22.17,2.28,14.27,4.44-.48,16.17.77,27.23,1.44,12.74,10.18-.09,10.82-6.29.28-2.72-1.38-5.02-.67-7.51.47-1.64,3.33-3.1,4.4-6.66,4.09-13.66,4.12-25.77,5.56-39.43.35-3.28,1.86-11.54,5.94-6.21,2.01,2.62-.41,21.68-.12,27.12s2.02,11.07,2.04,16.46c5.44.37,23.52-7.07,27.03-2.35,3.15,4.23-6.78,28.64-5.08,35.35-2.05.25-6.18.13-6.58-2.46-.77-4.89,7.77-28.16,5.58-30.54-3.41,1.18-18.99,2.18-19.85,4.63-1.98,5.7,6.43,32.07,8.73,39.05l-1.49,2.19c-6.12,1.89-7.55-8.42-10.54-13.18-2.77-4.43-6.61-8.05-10.29-11.69-2.28,15.45-21.78,13.92-21.5-.45.17-8.81,14.89-23.69-2.96-22.56-.31,13.05-2.77,26.25-6.92,38.56-6.9,2.79-9.29-3.02-14.46-4.63-2.64,6.81-6.35,3.95-10.86,5.27-1.18.34-2.04,1.97-3.46,2.53-5.32,2.11-10.85.38-14.22-4.22-.84-1.15-3.99-8.23-3.99-9.01v-30.5c-2.94-.48-1.61.7-2.12,2.33-3.19,10.31-3.24,21.03-4.96,31.58-2.67.66-5.56-.52-5.93-3.47l3.53-41.46c-1.85-1.84-1.02-.94-1.78.24-2.85,4.45-6.72,18.13-6.72,23.28v26l-1.61,1.41-3.46-.33c-.31-.22-1.92-6.59-1.92-7.08v-45.5h.06ZM71.88,83c2.99-2.46,5.05-7.65,6.13-11.35.55-1.91,3.6-14.72.35-14.63-5,7.56-7.26,16.9-6.48,25.98M135.75,63c-4.83-1.74-7.33,5.86-6.8,9.3.46,2.99,6.35,7.71,8.79,9.7l-1.99-19ZM188.66,72.5c.36,3.25,3.38,13.34,6.69,14.34,11.97,3.62,15.68-24.01,19.79-28.81,2.22-2.6,1.02.87,1.9.89l2.58-.4c-1.95,11.22-6.86,30.96-20.58,32.42-11.88,1.26-12.59-8.85-16.87-16.93l-3.57,13.91c-5.36,1.17-7.01-4.28-7.65-8.68-1.18-8.18.78-16.99-1.26-25.23l5.89.1c2.07,4.47-2.09,10.05,1.6,13.88l5.65-12.81,5.83-.17c.44,5.61-.61,12,0,17.5h0Z"/>
  <path class="cls-1" d="M403.55,40.72c-.63-.63-1.75-3.28-1.28-3.72,5.01-.81,7.92,2.01,10.96,5.49.08,3.28-8.58-.66-9.68-1.78h0ZM164.62,36.09l1.07,6.91c-3.47-.09-5.71-3.32-7.98-5.5l6.9-1.41h0Z"/>
  <path d="M430.22,55c.39,1.62-.32,2.32-.97,3.52-4.05,7.57-22.11,29.57-30.56,30.46-7.94.83-1.81-4.52-2.41-6.43l-2.87-2.86c5.66-15.19,20.54-25.18,36.81-24.69M278.5,52.99l-1.57-25.07c4.73-1.86,22.45-3.52,25.54-.45,4.86,4.83-9.4,14.91-12.09,17.94l-11.89,7.58h.01ZM279.5,98c-.4-2.29.11-1.6,1.28-2.24,8.6-4.7,18.58-7.38,25.18-15.75,2.61,2.13,5.22,9.25,4.34,12.27-.7,2.39-9.39,5.71-11.32,5.71h-19.48ZM439.09,60.12c4.7,7.44.14,13.73-4.28,20-.84,1.18-.04,2.45-2.57,1.88-2.31-7.44,2.93-14.74,3.99-22l2.86.12ZM71.88,83c-.78-9.08,1.48-18.42,6.48-25.98,3.24-.09.2,12.71-.35,14.63-1.07,3.71-3.14,8.89-6.13,11.35M135.75,63l1.99,19c-2.44-2-8.33-6.72-8.79-9.7-.53-3.44,1.97-11.04,6.8-9.3"/>
  <rect width="2.38" height="119"/>
</svg>